<svg width="33" height="32" viewBox="0 0 33 32" fill="none" xmlns="http://www.w3.org/2000/svg">
<path d="M13.6344 14.6969C13.9062 14.5 14.0375 14.175 14.0375 13.7281C14.0469 13.5156 14.0031 13.3063 13.9094 13.1156C13.825 12.9625 13.7 12.8344 13.5469 12.7437C13.3881 12.6475 13.2118 12.5837 13.0281 12.5562C12.8281 12.5187 12.625 12.5 12.425 12.5031H10.2281V14.9937H12.6062C13.0156 14.9969 13.3625 14.8969 13.6344 14.6969ZM14.0031 16.9469C13.6969 16.7125 13.2875 16.5969 12.7781 16.5969H10.2219V19.5344H12.7281C12.9625 19.5344 13.1781 19.5125 13.3875 19.4688C13.5856 19.43 13.7744 19.3536 13.9438 19.2437C14.1031 19.1406 14.2312 19 14.3281 18.8188C14.4219 18.6375 14.4688 18.4062 14.4688 18.1281C14.4688 17.575 14.3125 17.1844 14.0031 16.9469ZM16.5 2C8.76875 2 2.5 8.26875 2.5 16C2.5 23.7313 8.76875 30 16.5 30C24.2313 30 30.5 23.7313 30.5 16C30.5 8.26875 24.2313 2 16.5 2ZM19.2031 10.9656H23.5281V12.0188H19.2031V10.9656ZM16.5 19.65C16.2977 20.034 16.0088 20.3657 15.6562 20.6187C15.2875 20.875 14.8781 21.0625 14.4438 21.1719C13.9893 21.2937 13.5205 21.3536 13.05 21.35H7.875V10.6906H12.9062C13.4156 10.6906 13.8781 10.7375 14.3 10.825C14.7188 10.9125 15.075 11.0625 15.375 11.2656C15.6719 11.4688 15.9062 11.7406 16.0719 12.0781C16.2344 12.4125 16.3188 12.8313 16.3188 13.3281C16.3188 13.8656 16.1969 14.3094 15.9531 14.6687C15.7063 15.0281 15.35 15.3188 14.8656 15.5469C15.525 15.7344 16.0094 16.0688 16.3281 16.5375C16.6531 17.0125 16.8125 17.5813 16.8125 18.25C16.8125 18.7938 16.7094 19.2594 16.5 19.65ZM25.2125 18H19.6375C19.6375 18.6063 19.8469 19.1875 20.1625 19.5C20.4813 19.8094 20.9375 19.9656 21.5344 19.9656C21.9656 19.9656 22.3312 19.8563 22.6437 19.6406C22.9531 19.425 23.1406 19.1969 23.2094 18.9594H25.0781C24.7781 19.8875 24.3219 20.55 23.7031 20.95C23.0906 21.35 22.3406 21.55 21.4688 21.55C20.8594 21.55 20.3125 21.45 19.8219 21.2594C19.35 21.075 18.925 20.7937 18.575 20.4312C18.2299 20.059 17.9632 19.6211 17.7906 19.1437C17.6 18.6156 17.5063 18.0594 17.5125 17.5C17.5125 16.9219 17.6094 16.3844 17.7969 15.8844C18.1562 14.9125 18.9031 14.1344 19.8563 13.7312C20.3656 13.5188 20.9125 13.4125 21.4656 13.4187C22.1219 13.4187 22.6906 13.5437 23.1844 13.8C23.6597 14.0447 24.0724 14.3954 24.3906 14.825C24.7062 15.2531 24.9281 15.7406 25.0688 16.2906C25.2031 16.8312 25.25 17.4 25.2125 18ZM21.4 15.0125C21.0625 15.0125 20.7781 15.0719 20.5594 15.1875C20.3406 15.3031 20.1594 15.4469 20.0219 15.6125C19.8909 15.7724 19.7941 15.9575 19.7375 16.1562C19.6875 16.3219 19.6531 16.4906 19.6406 16.6625H23.0938C23.0438 16.1219 22.8563 15.7219 22.6063 15.4406C22.3438 15.1625 21.9219 15.0125 21.4 15.0125Z" fill="#EEEEEE"/>
</svg>
