<svg width="500" height="500" viewBox="0 0 500 500" fill="none" xmlns="http://www.w3.org/2000/svg">
<path d="M338.333 239.292L371.042 206.583L292.917 128.458L260.208 161.167L173.958 75.125C157.708 58.875 131.25 58.875 115 75.125L75.4167 114.708C59.1667 130.958 59.1667 157.417 75.4167 173.667L161.458 259.708L65.625 355.75C63.5417 357.833 62.5 360.333 62.5 363.25V426.583C62.5 432.417 67.0833 437 72.9167 437H136.25C138.958 437 141.667 435.958 143.542 433.875L239.792 337.625L325.833 423.667C353.333 451.167 383.333 425.125 384.792 423.667L424.375 384.083C440.625 367.833 440.625 341.375 424.375 325.125L338.333 239.292V239.292ZM191.25 230.125L105 144.083L144.375 104.5L170.833 130.958L161.042 141.167C157.146 145.062 154.958 150.345 154.958 155.854C154.958 161.363 157.146 166.646 161.042 170.542C164.937 174.437 170.22 176.625 175.729 176.625C181.238 176.625 186.521 174.437 190.417 170.542L200.417 160.542L230.625 190.75L191.25 230.125V230.125ZM355.417 394.5L269.375 308.458L308.958 268.875L339.167 299.083L329.167 309.083C327.238 311.012 325.708 313.302 324.664 315.822C323.62 318.342 323.083 321.043 323.083 323.771C323.083 326.499 323.62 329.2 324.664 331.72C325.708 334.24 327.238 336.53 329.167 338.458C331.095 340.387 333.385 341.917 335.905 342.961C338.425 344.005 341.126 344.542 343.854 344.542C346.582 344.542 349.283 344.005 351.803 342.961C354.323 341.917 356.613 340.387 358.542 338.458L368.542 328.458L395 354.917L355.417 394.5V394.5ZM431.458 146.167C433.39 144.239 434.922 141.95 435.967 139.43C437.013 136.909 437.551 134.208 437.551 131.479C437.551 128.751 437.013 126.049 435.967 123.529C434.922 121.008 433.39 118.719 431.458 116.792L382.708 68.0417C372.917 58.25 359.375 62 353.333 68.0417L315.208 106.167L393.333 184.292L431.458 146.167V146.167Z" fill="#393E46"/>
</svg>
