<svg width="49" height="49" viewBox="0 0 49 49" fill="none" xmlns="http://www.w3.org/2000/svg">
<path d="M39.5 6.5H9.5C8.70435 6.5 7.94129 6.81607 7.37868 7.37868C6.81607 7.94129 6.5 8.70435 6.5 9.5V39.5C6.5 40.2956 6.81607 41.0587 7.37868 41.6213C7.94129 42.1839 8.70435 42.5 9.5 42.5H39.5C40.2956 42.5 41.0587 42.1839 41.6213 41.6213C42.1839 41.0587 42.5 40.2956 42.5 39.5V9.5C42.5 8.70435 42.1839 7.94129 41.6213 7.37868C41.0587 6.81607 40.2956 6.5 39.5 6.5Z" stroke="#393E46" stroke-width="4"/>
<path d="M14.5 15.5V33.5" stroke="#393E46" stroke-width="4" stroke-linecap="round" stroke-linejoin="round"/>
<path d="M16.5 25.5C19.5 25.5 23.5 24.7 23.5 20.5C23.5 16.3 19.5 15.5 16.5 15.5H14.5V25.5H16.5Z" stroke="#393E46" stroke-width="4" stroke-linecap="round" stroke-linejoin="round"/>
<path d="M34.5 21.525C33.5 21.525 28.5 21.027 28.5 24.512C28.5 27.998 34.5 27.002 34.5 30.488C34.5 33.973 28.5 33.475 28.5 33.475" stroke="#393E46" stroke-width="4" stroke-linecap="round" stroke-linejoin="round"/>
</svg>
