<svg width="43" height="42" viewBox="0 0 43 42" fill="none" xmlns="http://www.w3.org/2000/svg">
<mask id="path-1-outside-1_2_85" maskUnits="userSpaceOnUse" x="4.61874" y="2.49945" width="34" height="37" fill="black">
<rect fill="white" x="4.61874" y="2.49945" width="34" height="37"/>
<path d="M25.8365 26.0452C24.5208 26.1736 23.1954 25.9323 22.0092 25.3487C21.7404 25.1339 21.5185 24.8662 21.3572 24.5622C21.1958 24.2582 21.0985 23.9243 21.0712 23.5812C21.0708 23.5299 21.0602 23.4792 21.04 23.432C21.0198 23.3848 20.9905 23.3421 20.9537 23.3063C20.917 23.2705 20.8735 23.2423 20.8258 23.2235C20.778 23.2046 20.7271 23.1953 20.6757 23.1962C20.1216 23.1906 19.5674 23.1906 19.0132 23.1962C18.9166 23.1864 18.82 23.2151 18.7443 23.276C18.6686 23.3369 18.62 23.4252 18.609 23.5217C18.5776 24.1235 18.6794 24.7247 18.9072 25.2825C19.135 25.8403 19.4831 26.341 19.9267 26.7487C21.0468 27.6234 22.407 28.1356 23.8257 28.217C25.304 28.3882 26.8001 28.3244 28.2585 28.028C29.3781 27.8192 30.4047 27.2662 31.195 26.446C31.632 25.9073 31.9248 25.2664 32.0461 24.5834C32.1673 23.9005 32.1129 23.1979 31.888 22.5417C31.6994 22.0792 31.4073 21.6659 31.0342 21.3338C30.661 21.0016 30.2168 20.7593 29.7355 20.6255C27.4955 19.838 25.0735 19.8992 22.788 19.3007C22.3907 19.1782 21.906 19.0417 21.7292 18.6217C21.627 18.3262 21.62 18.006 21.7092 17.7062C21.7983 17.4065 21.9791 17.1422 22.2262 16.9505C22.9443 16.54 23.762 16.3365 24.5887 16.3625C25.7091 16.2575 26.8383 16.4194 27.884 16.835C28.1983 17.0198 28.4687 17.2708 28.6763 17.5706C28.8839 17.8704 29.0238 18.2117 29.0862 18.571C29.0891 18.6772 29.1317 18.7786 29.2055 18.855C29.2794 18.9315 29.3792 18.9775 29.4852 18.984C30.0347 18.9945 30.5842 18.9857 31.1355 18.9875C31.2309 18.9987 31.3271 18.9751 31.4065 18.9211C31.4859 18.8671 31.5431 18.7863 31.5677 18.6935C31.5725 17.9515 31.3834 17.2211 31.019 16.5746C30.6547 15.9282 30.1278 15.3881 29.4905 15.008C27.7319 14.1961 25.7799 13.8971 23.859 14.1452C22.4515 14.2032 21.1068 14.7439 20.051 15.6765C19.5665 16.1991 19.2385 16.8471 19.1043 17.547C18.97 18.2468 19.0349 18.9702 19.2915 19.635C19.4913 20.0804 19.7854 20.4772 20.1534 20.7981C20.5213 21.1189 20.9545 21.3562 21.423 21.4935C23.6577 22.3002 26.106 22.0412 28.36 22.7552C28.801 22.904 29.312 23.1332 29.4467 23.6215C29.5191 23.9147 29.5136 24.2217 29.4307 24.5121C29.3478 24.8025 29.1905 25.0662 28.9742 25.277C28.0365 25.8599 26.9375 26.129 25.8365 26.0452ZM36.0197 11.2665C31.6587 8.80016 27.296 6.33558 22.9315 3.87274C22.4938 3.62797 22.0006 3.49945 21.4991 3.49945C20.9976 3.49945 20.5045 3.62797 20.0667 3.87274L7.02749 11.2367C6.60449 11.4669 6.25077 11.806 6.00306 12.219C5.75534 12.632 5.62265 13.1037 5.61874 13.5852V28.4165C5.6259 28.907 5.76568 29.3864 6.02325 29.8039C6.28082 30.2213 6.64659 30.5613 7.08174 30.7877C8.32949 31.4667 9.54224 32.2157 10.8145 32.851C11.5482 33.2431 12.3631 33.4591 13.1948 33.4818C14.0264 33.5046 14.8519 33.3336 15.606 32.9822C16.1704 32.6289 16.6297 32.1306 16.9359 31.5393C17.2422 30.948 17.3842 30.2854 17.3472 29.6205C17.356 24.7257 17.3472 19.831 17.3507 14.938C17.3594 14.8844 17.3567 14.8296 17.3427 14.7772C17.3287 14.7247 17.3038 14.6758 17.2696 14.6337C17.2354 14.5915 17.1927 14.5571 17.1442 14.5327C17.0958 14.5082 17.0427 14.4943 16.9885 14.4917C16.4326 14.4854 15.8766 14.4854 15.3207 14.4917C15.2695 14.4873 15.2178 14.4937 15.1692 14.5105C15.1205 14.5274 15.0759 14.5542 15.0383 14.5893C15.0007 14.6245 14.9709 14.6671 14.9508 14.7145C14.9307 14.7619 14.9208 14.813 14.9217 14.8645C14.9147 19.7277 14.9235 24.591 14.9182 29.456C14.9193 29.7917 14.8175 30.1197 14.6267 30.3959C14.4359 30.6722 14.1651 30.8834 13.8507 31.0012C13.489 31.1082 13.1087 31.1377 12.7347 31.0876C12.3608 31.0375 12.0016 30.9091 11.6807 30.7107L8.21224 28.7507C8.13554 28.7146 8.07178 28.6558 8.02954 28.5822C7.98729 28.5087 7.96861 28.424 7.97599 28.3395V13.6622C7.96805 13.5671 7.99034 13.4719 8.03967 13.3902C8.08901 13.3085 8.16287 13.2445 8.25074 13.2072C12.5826 10.7666 16.9138 8.32416 21.2445 5.87999C21.3197 5.82838 21.4088 5.80075 21.5 5.80075C21.5912 5.80075 21.6803 5.82838 21.7555 5.87999L34.751 13.2055C34.8381 13.2437 34.9111 13.308 34.96 13.3895C35.0089 13.471 35.0313 13.5657 35.024 13.6605V28.3395C35.0314 28.4245 35.013 28.5097 34.9711 28.584C34.9293 28.6583 34.866 28.7183 34.7895 28.756C30.5242 31.1687 26.2559 33.5778 21.9847 35.9835C21.7817 36.0955 21.5402 36.2792 21.3022 36.141C20.1822 35.5075 19.0797 34.8495 17.9632 34.2107C17.9062 34.167 17.8375 34.1413 17.7657 34.137C17.694 34.1326 17.6226 34.1498 17.5607 34.1862C17.0698 34.4742 16.5531 34.7155 16.0172 34.9072C15.7757 35.0052 15.4782 35.0332 15.312 35.2572C15.5245 35.4876 15.7817 35.6722 16.068 35.7997L19.981 38.0625C20.4126 38.3334 20.9088 38.4837 21.4181 38.4978C21.9275 38.512 22.4313 38.3895 22.8772 38.143C27.2242 35.693 31.5712 33.2407 35.9182 30.786C36.3528 30.5593 36.7181 30.2195 36.9756 29.8024C37.2331 29.3854 37.3732 28.9066 37.3812 28.4165V13.5852C37.3772 13.1134 37.2493 12.6509 37.0103 12.2439C36.7714 11.837 36.4298 11.5 36.0197 11.2665Z"/>
</mask>
<path d="M25.8365 26.0452C24.5208 26.1736 23.1954 25.9323 22.0092 25.3487C21.7404 25.1339 21.5185 24.8662 21.3572 24.5622C21.1958 24.2582 21.0985 23.9243 21.0712 23.5812C21.0708 23.5299 21.0602 23.4792 21.04 23.432C21.0198 23.3848 20.9905 23.3421 20.9537 23.3063C20.917 23.2705 20.8735 23.2423 20.8258 23.2235C20.778 23.2046 20.7271 23.1953 20.6757 23.1962C20.1216 23.1906 19.5674 23.1906 19.0132 23.1962C18.9166 23.1864 18.82 23.2151 18.7443 23.276C18.6686 23.3369 18.62 23.4252 18.609 23.5217C18.5776 24.1235 18.6794 24.7247 18.9072 25.2825C19.135 25.8403 19.4831 26.341 19.9267 26.7487C21.0468 27.6234 22.407 28.1356 23.8257 28.217C25.304 28.3882 26.8001 28.3244 28.2585 28.028C29.3781 27.8192 30.4047 27.2662 31.195 26.446C31.632 25.9073 31.9248 25.2664 32.0461 24.5834C32.1673 23.9005 32.1129 23.1979 31.888 22.5417C31.6994 22.0792 31.4073 21.6659 31.0342 21.3338C30.661 21.0016 30.2168 20.7593 29.7355 20.6255C27.4955 19.838 25.0735 19.8992 22.788 19.3007C22.3907 19.1782 21.906 19.0417 21.7292 18.6217C21.627 18.3262 21.62 18.006 21.7092 17.7062C21.7983 17.4065 21.9791 17.1422 22.2262 16.9505C22.9443 16.54 23.762 16.3365 24.5887 16.3625C25.7091 16.2575 26.8383 16.4194 27.884 16.835C28.1983 17.0198 28.4687 17.2708 28.6763 17.5706C28.8839 17.8704 29.0238 18.2117 29.0862 18.571C29.0891 18.6772 29.1317 18.7786 29.2055 18.855C29.2794 18.9315 29.3792 18.9775 29.4852 18.984C30.0347 18.9945 30.5842 18.9857 31.1355 18.9875C31.2309 18.9987 31.3271 18.9751 31.4065 18.9211C31.4859 18.8671 31.5431 18.7863 31.5677 18.6935C31.5725 17.9515 31.3834 17.2211 31.019 16.5746C30.6547 15.9282 30.1278 15.3881 29.4905 15.008C27.7319 14.1961 25.7799 13.8971 23.859 14.1452C22.4515 14.2032 21.1068 14.7439 20.051 15.6765C19.5665 16.1991 19.2385 16.8471 19.1043 17.547C18.97 18.2468 19.0349 18.9702 19.2915 19.635C19.4913 20.0804 19.7854 20.4772 20.1534 20.7981C20.5213 21.1189 20.9545 21.3562 21.423 21.4935C23.6577 22.3002 26.106 22.0412 28.36 22.7552C28.801 22.904 29.312 23.1332 29.4467 23.6215C29.5191 23.9147 29.5136 24.2217 29.4307 24.5121C29.3478 24.8025 29.1905 25.0662 28.9742 25.277C28.0365 25.8599 26.9375 26.129 25.8365 26.0452ZM36.0197 11.2665C31.6587 8.80016 27.296 6.33558 22.9315 3.87274C22.4938 3.62797 22.0006 3.49945 21.4991 3.49945C20.9976 3.49945 20.5045 3.62797 20.0667 3.87274L7.02749 11.2367C6.60449 11.4669 6.25077 11.806 6.00306 12.219C5.75534 12.632 5.62265 13.1037 5.61874 13.5852V28.4165C5.6259 28.907 5.76568 29.3864 6.02325 29.8039C6.28082 30.2213 6.64659 30.5613 7.08174 30.7877C8.32949 31.4667 9.54224 32.2157 10.8145 32.851C11.5482 33.2431 12.3631 33.4591 13.1948 33.4818C14.0264 33.5046 14.8519 33.3336 15.606 32.9822C16.1704 32.6289 16.6297 32.1306 16.9359 31.5393C17.2422 30.948 17.3842 30.2854 17.3472 29.6205C17.356 24.7257 17.3472 19.831 17.3507 14.938C17.3594 14.8844 17.3567 14.8296 17.3427 14.7772C17.3287 14.7247 17.3038 14.6758 17.2696 14.6337C17.2354 14.5915 17.1927 14.5571 17.1442 14.5327C17.0958 14.5082 17.0427 14.4943 16.9885 14.4917C16.4326 14.4854 15.8766 14.4854 15.3207 14.4917C15.2695 14.4873 15.2178 14.4937 15.1692 14.5105C15.1205 14.5274 15.0759 14.5542 15.0383 14.5893C15.0007 14.6245 14.9709 14.6671 14.9508 14.7145C14.9307 14.7619 14.9208 14.813 14.9217 14.8645C14.9147 19.7277 14.9235 24.591 14.9182 29.456C14.9193 29.7917 14.8175 30.1197 14.6267 30.3959C14.4359 30.6722 14.1651 30.8834 13.8507 31.0012C13.489 31.1082 13.1087 31.1377 12.7347 31.0876C12.3608 31.0375 12.0016 30.9091 11.6807 30.7107L8.21224 28.7507C8.13554 28.7146 8.07178 28.6558 8.02954 28.5822C7.98729 28.5087 7.96861 28.424 7.97599 28.3395V13.6622C7.96805 13.5671 7.99034 13.4719 8.03967 13.3902C8.08901 13.3085 8.16287 13.2445 8.25074 13.2072C12.5826 10.7666 16.9138 8.32416 21.2445 5.87999C21.3197 5.82838 21.4088 5.80075 21.5 5.80075C21.5912 5.80075 21.6803 5.82838 21.7555 5.87999L34.751 13.2055C34.8381 13.2437 34.9111 13.308 34.96 13.3895C35.0089 13.471 35.0313 13.5657 35.024 13.6605V28.3395C35.0314 28.4245 35.013 28.5097 34.9711 28.584C34.9293 28.6583 34.866 28.7183 34.7895 28.756C30.5242 31.1687 26.2559 33.5778 21.9847 35.9835C21.7817 36.0955 21.5402 36.2792 21.3022 36.141C20.1822 35.5075 19.0797 34.8495 17.9632 34.2107C17.9062 34.167 17.8375 34.1413 17.7657 34.137C17.694 34.1326 17.6226 34.1498 17.5607 34.1862C17.0698 34.4742 16.5531 34.7155 16.0172 34.9072C15.7757 35.0052 15.4782 35.0332 15.312 35.2572C15.5245 35.4876 15.7817 35.6722 16.068 35.7997L19.981 38.0625C20.4126 38.3334 20.9088 38.4837 21.4181 38.4978C21.9275 38.512 22.4313 38.3895 22.8772 38.143C27.2242 35.693 31.5712 33.2407 35.9182 30.786C36.3528 30.5593 36.7181 30.2195 36.9756 29.8024C37.2331 29.3854 37.3732 28.9066 37.3812 28.4165V13.5852C37.3772 13.1134 37.2493 12.6509 37.0103 12.2439C36.7714 11.837 36.4298 11.5 36.0197 11.2665Z" fill="#393E46"/>
<path d="M25.8365 26.0452C24.5208 26.1736 23.1954 25.9323 22.0092 25.3487C21.7404 25.1339 21.5185 24.8662 21.3572 24.5622C21.1958 24.2582 21.0985 23.9243 21.0712 23.5812C21.0708 23.5299 21.0602 23.4792 21.04 23.432C21.0198 23.3848 20.9905 23.3421 20.9537 23.3063C20.917 23.2705 20.8735 23.2423 20.8258 23.2235C20.778 23.2046 20.7271 23.1953 20.6757 23.1962C20.1216 23.1906 19.5674 23.1906 19.0132 23.1962C18.9166 23.1864 18.82 23.2151 18.7443 23.276C18.6686 23.3369 18.62 23.4252 18.609 23.5217C18.5776 24.1235 18.6794 24.7247 18.9072 25.2825C19.135 25.8403 19.4831 26.341 19.9267 26.7487C21.0468 27.6234 22.407 28.1356 23.8257 28.217C25.304 28.3882 26.8001 28.3244 28.2585 28.028C29.3781 27.8192 30.4047 27.2662 31.195 26.446C31.632 25.9073 31.9248 25.2664 32.0461 24.5834C32.1673 23.9005 32.1129 23.1979 31.888 22.5417C31.6994 22.0792 31.4073 21.6659 31.0342 21.3338C30.661 21.0016 30.2168 20.7593 29.7355 20.6255C27.4955 19.838 25.0735 19.8992 22.788 19.3007C22.3907 19.1782 21.906 19.0417 21.7292 18.6217C21.627 18.3262 21.62 18.006 21.7092 17.7062C21.7983 17.4065 21.9791 17.1422 22.2262 16.9505C22.9443 16.54 23.762 16.3365 24.5887 16.3625C25.7091 16.2575 26.8383 16.4194 27.884 16.835C28.1983 17.0198 28.4687 17.2708 28.6763 17.5706C28.8839 17.8704 29.0238 18.2117 29.0862 18.571C29.0891 18.6772 29.1317 18.7786 29.2055 18.855C29.2794 18.9315 29.3792 18.9775 29.4852 18.984C30.0347 18.9945 30.5842 18.9857 31.1355 18.9875C31.2309 18.9987 31.3271 18.9751 31.4065 18.9211C31.4859 18.8671 31.5431 18.7863 31.5677 18.6935C31.5725 17.9515 31.3834 17.2211 31.019 16.5746C30.6547 15.9282 30.1278 15.3881 29.4905 15.008C27.7319 14.1961 25.7799 13.8971 23.859 14.1452C22.4515 14.2032 21.1068 14.7439 20.051 15.6765C19.5665 16.1991 19.2385 16.8471 19.1043 17.547C18.97 18.2468 19.0349 18.9702 19.2915 19.635C19.4913 20.0804 19.7854 20.4772 20.1534 20.7981C20.5213 21.1189 20.9545 21.3562 21.423 21.4935C23.6577 22.3002 26.106 22.0412 28.36 22.7552C28.801 22.904 29.312 23.1332 29.4467 23.6215C29.5191 23.9147 29.5136 24.2217 29.4307 24.5121C29.3478 24.8025 29.1905 25.0662 28.9742 25.277C28.0365 25.8599 26.9375 26.129 25.8365 26.0452ZM36.0197 11.2665C31.6587 8.80016 27.296 6.33558 22.9315 3.87274C22.4938 3.62797 22.0006 3.49945 21.4991 3.49945C20.9976 3.49945 20.5045 3.62797 20.0667 3.87274L7.02749 11.2367C6.60449 11.4669 6.25077 11.806 6.00306 12.219C5.75534 12.632 5.62265 13.1037 5.61874 13.5852V28.4165C5.6259 28.907 5.76568 29.3864 6.02325 29.8039C6.28082 30.2213 6.64659 30.5613 7.08174 30.7877C8.32949 31.4667 9.54224 32.2157 10.8145 32.851C11.5482 33.2431 12.3631 33.4591 13.1948 33.4818C14.0264 33.5046 14.8519 33.3336 15.606 32.9822C16.1704 32.6289 16.6297 32.1306 16.9359 31.5393C17.2422 30.948 17.3842 30.2854 17.3472 29.6205C17.356 24.7257 17.3472 19.831 17.3507 14.938C17.3594 14.8844 17.3567 14.8296 17.3427 14.7772C17.3287 14.7247 17.3038 14.6758 17.2696 14.6337C17.2354 14.5915 17.1927 14.5571 17.1442 14.5327C17.0958 14.5082 17.0427 14.4943 16.9885 14.4917C16.4326 14.4854 15.8766 14.4854 15.3207 14.4917C15.2695 14.4873 15.2178 14.4937 15.1692 14.5105C15.1205 14.5274 15.0759 14.5542 15.0383 14.5893C15.0007 14.6245 14.9709 14.6671 14.9508 14.7145C14.9307 14.7619 14.9208 14.813 14.9217 14.8645C14.9147 19.7277 14.9235 24.591 14.9182 29.456C14.9193 29.7917 14.8175 30.1197 14.6267 30.3959C14.4359 30.6722 14.1651 30.8834 13.8507 31.0012C13.489 31.1082 13.1087 31.1377 12.7347 31.0876C12.3608 31.0375 12.0016 30.9091 11.6807 30.7107L8.21224 28.7507C8.13554 28.7146 8.07178 28.6558 8.02954 28.5822C7.98729 28.5087 7.96861 28.424 7.97599 28.3395V13.6622C7.96805 13.5671 7.99034 13.4719 8.03967 13.3902C8.08901 13.3085 8.16287 13.2445 8.25074 13.2072C12.5826 10.7666 16.9138 8.32416 21.2445 5.87999C21.3197 5.82838 21.4088 5.80075 21.5 5.80075C21.5912 5.80075 21.6803 5.82838 21.7555 5.87999L34.751 13.2055C34.8381 13.2437 34.9111 13.308 34.96 13.3895C35.0089 13.471 35.0313 13.5657 35.024 13.6605V28.3395C35.0314 28.4245 35.013 28.5097 34.9711 28.584C34.9293 28.6583 34.866 28.7183 34.7895 28.756C30.5242 31.1687 26.2559 33.5778 21.9847 35.9835C21.7817 36.0955 21.5402 36.2792 21.3022 36.141C20.1822 35.5075 19.0797 34.8495 17.9632 34.2107C17.9062 34.167 17.8375 34.1413 17.7657 34.137C17.694 34.1326 17.6226 34.1498 17.5607 34.1862C17.0698 34.4742 16.5531 34.7155 16.0172 34.9072C15.7757 35.0052 15.4782 35.0332 15.312 35.2572C15.5245 35.4876 15.7817 35.6722 16.068 35.7997L19.981 38.0625C20.4126 38.3334 20.9088 38.4837 21.4181 38.4978C21.9275 38.512 22.4313 38.3895 22.8772 38.143C27.2242 35.693 31.5712 33.2407 35.9182 30.786C36.3528 30.5593 36.7181 30.2195 36.9756 29.8024C37.2331 29.3854 37.3732 28.9066 37.3812 28.4165V13.5852C37.3772 13.1134 37.2493 12.6509 37.0103 12.2439C36.7714 11.837 36.4298 11.5 36.0197 11.2665Z" stroke="#393E46" mask="url(#path-1-outside-1_2_85)"/>
</svg>
