<svg width="38" height="42" viewBox="0 0 38 42" fill="none" xmlns="http://www.w3.org/2000/svg">
<path d="M0.649918 0L4.02042 37.8L19.1457 42L34.3103 37.7948L37.686 0H0.652543H0.649918ZM31.4202 35.3903L19.2297 38.7686V38.787L19.1982 38.7765L19.1667 38.787V38.7686L6.97617 35.3903L4.09392 3.09225H34.3024L31.4202 35.3903ZM24.8577 21.7455L24.3222 27.7568L19.1457 29.1532L13.9823 27.762L13.6515 24.0608H8.99742L9.64579 31.3425L19.164 33.9754L28.6534 31.3425L29.9265 17.1098H13.0294L12.6068 12.3611H30.3465L30.7613 7.72538H7.53792L8.79004 21.7455H24.8577Z" fill="#393E46"/>
</svg>
