<svg width="18" height="18" viewBox="0 0 18 18" fill="none" xmlns="http://www.w3.org/2000/svg">
<path d="M10.81 8.3L9.00461 6.49545L9.00458 6.49542C8.93952 6.43036 8.88791 6.35313 8.8527 6.26812C8.81749 6.18312 8.79937 6.09201 8.79937 6C8.79937 5.90799 8.81749 5.81688 8.8527 5.73188C8.88791 5.64687 8.93952 5.56964 9.00458 5.50458C9.06964 5.43952 9.14687 5.38791 9.23188 5.3527C9.31688 5.31749 9.40799 5.29937 9.5 5.29937C9.59201 5.29937 9.68312 5.31749 9.76812 5.3527C9.85313 5.38791 9.93036 5.43952 9.99542 5.50458L12.9952 8.5044L12.9954 8.50458L12.854 8.646C12.9006 8.69245 12.9375 8.74762 12.9627 8.80837C12.9879 8.86911 13.0009 8.93423 13.0009 9C13.0009 9.06577 12.9879 9.13089 12.9627 9.19163C12.9375 9.25238 12.9006 9.30755 12.854 9.354L10.81 8.3ZM10.81 8.3H5.5C5.31435 8.3 5.1363 8.37375 5.00503 8.50503C4.87375 8.6363 4.8 8.81435 4.8 9C4.8 9.18565 4.87375 9.3637 5.00503 9.49498C5.1363 9.62625 5.31435 9.7 5.5 9.7H10.81L9.00461 11.5045L9.00458 11.5046C8.93952 11.5696 8.88791 11.6469 8.8527 11.7319C8.81749 11.8169 8.79937 11.908 8.79937 12C8.79937 12.092 8.81749 12.1831 8.8527 12.2681C8.88791 12.3531 8.93952 12.4304 9.00458 12.4954C9.06964 12.5605 9.14687 12.6121 9.23188 12.6473C9.31688 12.6825 9.40799 12.7006 9.5 12.7006C9.59201 12.7006 9.68312 12.6825 9.76812 12.6473C9.85313 12.6121 9.93036 12.5605 9.99542 12.4954L12.9952 9.4956L10.81 8.3ZM4.19167 13.8083C2.91643 12.5331 2.2 10.8035 2.2 9C2.2 7.19653 2.91643 5.46692 4.19167 4.19167C5.46692 2.91643 7.19653 2.2 9 2.2C10.8035 2.2 12.5331 2.91643 13.8083 4.19167C15.0836 5.46692 15.8 7.19653 15.8 9C15.8 10.8035 15.0836 12.5331 13.8083 13.8083C12.5331 15.0836 10.8035 15.8 9 15.8C7.19653 15.8 5.46692 15.0836 4.19167 13.8083ZM14.7983 14.7983C16.3361 13.2605 17.2 11.1748 17.2 9C17.2 6.82522 16.3361 4.73952 14.7983 3.20172C13.2605 1.66393 11.1748 0.8 9 0.8C6.82522 0.8 4.73952 1.66393 3.20172 3.20172C1.66393 4.73952 0.8 6.82522 0.8 9C0.8 11.1748 1.66393 13.2605 3.20172 14.7983C4.73952 16.3361 6.82522 17.2 9 17.2C11.1748 17.2 13.2605 16.3361 14.7983 14.7983Z" fill="#EEEEEE" stroke="#EEEEEE" stroke-width="0.4"/>
</svg>
