<svg width="25" height="25" viewBox="0 0 25 25" fill="none" xmlns="http://www.w3.org/2000/svg">
<path d="M17.6533 11.8467L19.7467 9.75333L14.7467 4.75333L12.6533 6.84667L7.13333 1.34C6.09333 0.300002 4.4 0.300002 3.36 1.34L0.826667 3.87333C-0.213333 4.91333 -0.213333 6.60667 0.826667 7.64667L6.33333 13.1533L0.2 19.3C0.0666668 19.4333 0 19.5933 0 19.78V23.8333C0 24.2067 0.293333 24.5 0.666667 24.5H4.72C4.89333 24.5 5.06667 24.4333 5.18667 24.3L11.3467 18.14L16.8533 23.6467C18.6133 25.4067 20.5333 23.74 20.6267 23.6467L23.16 21.1133C24.2 20.0733 24.2 18.38 23.16 17.34L17.6533 11.8467ZM8.24 11.26L2.72 5.75333L5.24 3.22L6.93333 4.91333L6.30667 5.56667C6.05736 5.81597 5.91731 6.1541 5.91731 6.50667C5.91731 6.85924 6.05736 7.19736 6.30667 7.44667C6.55597 7.69597 6.8941 7.83603 7.24667 7.83603C7.59924 7.83603 7.93736 7.69597 8.18667 7.44667L8.82667 6.80667L10.76 8.74L8.24 11.26ZM18.7467 21.78L13.24 16.2733L15.7733 13.74L17.7067 15.6733L17.0667 16.3133C16.9432 16.4368 16.8453 16.5833 16.7785 16.7446C16.7117 16.9059 16.6773 17.0788 16.6773 17.2533C16.6773 17.4279 16.7117 17.6008 16.7785 17.7621C16.8453 17.9233 16.9432 18.0699 17.0667 18.1933C17.1901 18.3168 17.3367 18.4147 17.4979 18.4815C17.6592 18.5483 17.8321 18.5827 18.0067 18.5827C18.1812 18.5827 18.3541 18.5483 18.5154 18.4815C18.6767 18.4147 18.8232 18.3168 18.9467 18.1933L19.5867 17.5533L21.28 19.2467L18.7467 21.78ZM23.6133 5.88667C23.7369 5.76332 23.835 5.6168 23.9019 5.4555C23.9688 5.2942 24.0033 5.12129 24.0033 4.94667C24.0033 4.77204 23.9688 4.59913 23.9019 4.43784C23.835 4.27654 23.7369 4.13002 23.6133 4.00667L20.4933 0.886668C19.8667 0.260002 19 0.500002 18.6133 0.886668L16.1733 3.32667L21.1733 8.32667L23.6133 5.88667Z" fill="#00ADB5"/>
</svg>
