<svg width="33" height="32" viewBox="0 0 33 32" fill="none" xmlns="http://www.w3.org/2000/svg">
<path d="M16.1257 0C20.3847 0 24.4693 1.68571 27.4809 4.68629C30.4926 7.68687 32.1845 11.7565 32.1845 16C32.1845 20.2435 30.4926 24.3131 27.4809 27.3137C24.4693 30.3143 20.3847 32 16.1257 32C11.8666 32 7.78201 30.3143 4.7704 27.3137C1.7588 24.3131 0.0668945 20.2435 0.0668945 16C0.0668945 11.7565 1.7588 7.68687 4.7704 4.68629C7.78201 1.68571 11.8666 0 16.1257 0V0ZM9.09996 15C8.83377 15 8.57848 15.1054 8.39025 15.2929C8.20203 15.4804 8.09628 15.7348 8.09628 16C8.09628 16.2652 8.20203 16.5196 8.39025 16.7071C8.57848 16.8946 8.83377 17 9.09996 17H20.7285L16.4187 21.292C16.3254 21.385 16.2514 21.4954 16.2009 21.6168C16.1504 21.7383 16.1244 21.8685 16.1244 22C16.1244 22.1315 16.1504 22.2617 16.2009 22.3832C16.2514 22.5046 16.3254 22.615 16.4187 22.708C16.5121 22.801 16.6228 22.8747 16.7448 22.925C16.8667 22.9754 16.9974 23.0013 17.1293 23.0013C17.2613 23.0013 17.392 22.9754 17.5139 22.925C17.6358 22.8747 17.7466 22.801 17.84 22.708L23.862 16.708C23.9555 16.6151 24.0296 16.5048 24.0802 16.3833C24.1308 16.2618 24.1569 16.1315 24.1569 16C24.1569 15.8685 24.1308 15.7382 24.0802 15.6167C24.0296 15.4952 23.9555 15.3849 23.862 15.292L17.84 9.292C17.7466 9.19902 17.6358 9.12527 17.5139 9.07495C17.392 9.02464 17.2613 8.99874 17.1293 8.99874C16.9974 8.99874 16.8667 9.02464 16.7448 9.07495C16.6228 9.12527 16.5121 9.19902 16.4187 9.292C16.3254 9.38498 16.2514 9.49535 16.2009 9.61683C16.1504 9.73831 16.1244 9.86851 16.1244 10C16.1244 10.1315 16.1504 10.2617 16.2009 10.3832C16.2514 10.5046 16.3254 10.615 16.4187 10.708L20.7285 15H9.09996Z" fill="#EEEEEE"/>
</svg>
