<svg width="33" height="32" viewBox="0 0 33 32" fill="none" xmlns="http://www.w3.org/2000/svg">
<path d="M16.8744 0C12.6153 0 8.5307 1.68571 5.51909 4.68629C2.50748 7.68687 0.815582 11.7565 0.815582 16C0.815582 20.2435 2.50748 24.3131 5.51909 27.3137C8.5307 30.3143 12.6153 32 16.8744 32C21.1334 32 25.218 30.3143 28.2296 27.3137C31.2412 24.3131 32.9331 20.2435 32.9331 16C32.9331 11.7565 31.2412 7.68687 28.2296 4.68629C25.218 1.68571 21.1334 0 16.8744 0V0ZM23.9001 15C24.1663 15 24.4216 15.1054 24.6098 15.2929C24.798 15.4804 24.9038 15.7348 24.9038 16C24.9038 16.2652 24.798 16.5196 24.6098 16.7071C24.4216 16.8946 24.1663 17 23.9001 17H12.2715L16.5813 21.292C16.6746 21.385 16.7486 21.4954 16.7991 21.6168C16.8496 21.7383 16.8756 21.8685 16.8756 22C16.8756 22.1315 16.8496 22.2617 16.7991 22.3832C16.7486 22.5046 16.6746 22.615 16.5813 22.708C16.488 22.801 16.3772 22.8747 16.2553 22.925C16.1333 22.9754 16.0027 23.0013 15.8707 23.0013C15.7387 23.0013 15.608 22.9754 15.4861 22.925C15.3642 22.8747 15.2534 22.801 15.1601 22.708L9.13805 16.708C9.04458 16.6151 8.97042 16.5048 8.91982 16.3833C8.86922 16.2618 8.84318 16.1315 8.84318 16C8.84318 15.8685 8.86922 15.7382 8.91982 15.6167C8.97042 15.4952 9.04458 15.3849 9.13805 15.292L15.1601 9.292C15.3486 9.10423 15.6042 8.99874 15.8707 8.99874C16.1372 8.99874 16.3928 9.10423 16.5813 9.292C16.7698 9.47977 16.8756 9.73445 16.8756 10C16.8756 10.2656 16.7698 10.5202 16.5813 10.708L12.2715 15H23.9001Z" fill="#EEEEEE"/>
</svg>
